<svg id="visual" viewBox="0 0 900 600" width="900" height="600" xmlns="http://www.w3.org/2000/svg" xmlns:xlink="http://www.w3.org/1999/xlink" version="1.1"><rect x="0" y="0" width="900" height="600" fill="#001220"></rect><defs><linearGradient id="grad1_0" x1="33.3%" y1="0%" x2="100%" y2="100%"><stop offset="20%" stop-color="#001220" stop-opacity="1"></stop><stop offset="80%" stop-color="#001220" stop-opacity="1"></stop></linearGradient></defs><defs><linearGradient id="grad2_0" x1="0%" y1="0%" x2="66.7%" y2="100%"><stop offset="20%" stop-color="#001220" stop-opacity="1"></stop><stop offset="80%" stop-color="#001220" stop-opacity="1"></stop></linearGradient></defs><g transform="translate(900, 0)"><path d="M0 135.2C-14.6 116.2 -29.2 97.2 -51 88.3C-72.8 79.4 -101.9 80.6 -117.1 67.6C-132.3 54.6 -133.8 27.3 -135.2 0L0 0Z" fill="#FBAE3C"></path></g><g transform="translate(0, 600)"><path d="M0 -135.2C15.4 -117.6 30.8 -100 52.5 -90.9C74.2 -81.9 102.3 -81.3 117.1 -67.6C131.9 -53.9 133.6 -26.9 135.2 0L0 0Z" fill="#FBAE3C"></path></g></svg>